<svg xmlns="http://www.w3.org/2000/svg" id="time" viewBox="0 0 64 64"><title>time</title><g><path d="m50 58h-36c-1.104 0-2-.896-2-2s.896-2 2-2h36c1.104 0 2 .896 2 2s-.896 2-2 2z"/></g><g><path d="m46 48c-1.104 0-1.999-.894-2-1.997-.008-5.479-5.548-8.637-10.741-11.166-.69-.336-1.423-.678-2.181-1.03-6.358-2.963-15.065-7.021-15.078-15.804-.001-1.104.893-2.001 1.997-2.003h.003c1.103 0 1.999.894 2 1.997.009 6.238 6.788 9.396 12.768 12.184.779.363 1.533.715 2.243 1.061 4.536 2.209 12.978 6.32 12.99 14.756.001 1.104-.893 2.001-1.997 2.003-.002-.001-.003-.001-.004-.001z"/></g><g><path d="m18 48c-.001 0-.002 0-.003 0-1.104-.002-1.999-.898-1.997-2.003.013-8.783 8.72-12.841 15.078-15.804.758-.353 1.491-.694 2.181-1.03 5.193-2.529 10.733-5.686 10.741-11.166.001-1.103.897-1.997 2-1.997h.003c1.104.002 1.999.898 1.997 2.003-.012 8.436-8.454 12.547-12.99 14.756-.71.346-1.463.697-2.243 1.061-5.979 2.786-12.758 5.945-12.767 12.183-.001 1.103-.897 1.997-2 1.997z"/></g><g><path d="m46 58c-1.104 0-2-.896-2-2v-10c0-1.104.896-2 2-2s2 .896 2 2v10c0 1.104-.896 2-2 2z"/></g><g><path d="m18 58c-1.104 0-2-.896-2-2v-10c0-1.104.896-2 2-2s2 .896 2 2v10c0 1.104-.896 2-2 2z"/></g><g><path d="m46 20c-1.104 0-2-.896-2-2v-10c0-1.104.896-2 2-2s2 .896 2 2v10c0 1.104-.896 2-2 2z"/></g><g><path d="m18 20c-1.104 0-2-.896-2-2v-10c0-1.104.896-2 2-2s2 .896 2 2v10c0 1.104-.896 2-2 2z"/></g><g><path d="m50 10h-36c-1.104 0-2-.896-2-2s.896-2 2-2h36c1.104 0 2 .896 2 2s-.896 2-2 2z"/></g></svg>