<svg xmlns="http://www.w3.org/2000/svg" id="translation" viewBox="0 0 512 512"><title>translation</title><path d="m497 112.467h-209.934v-97.467c0-8.284-6.716-15-15-15h-257.066c-8.284 0-15 6.716-15 15v289.2c0 8.284 6.716 15 15 15h33.2v65.333c0 8.315 6.756 15 14.997 15 3.903 0 7.74-1.523 10.609-4.394l75.939-75.939h75.188v97.467c0 8.284 6.716 15 15 15h122.32l75.939 75.939c2.87 2.87 6.706 4.395 10.609 4.394 8.251 0 14.997-6.695 14.997-15v-65.333h33.202c8.284 0 15-6.716 15-15v-289.2c0-8.284-6.716-15-15-15zm-353.467 176.733c-3.979 0-7.794 1.58-10.606 4.394l-54.727 54.726v-44.12c0-8.284-6.716-15-15-15h-33.2v-259.2h227.066v259.2h-17.133zm338.467 112.467h-33.2c-8.284 0-15 6.716-15 15v44.12l-54.727-54.727c-2.813-2.813-6.628-4.394-10.606-4.394h-113.533v-82.466h17.133c8.284 0 15-6.716 15-15v-161.733h194.933z"/><path d="m212.06 225.551c-17.073-5.056-32.904-13.326-46.705-24.206 21.288-24.395 32.927-51.73 38.596-74.945h3.849c8.284 0 15-6.716 15-15s-6.716-15-15-15h-49.267v-17.133c0-8.284-6.716-15-15-15s-15 6.716-15 15v17.133h-49.266c-8.284 0-15 6.716-15 15s6.716 15 15 15h93.633c-5.098 17.241-14.115 36.409-29.031 53.882-3.123-3.806-6.058-7.785-8.778-11.931l-11.15-16.984c-4.547-6.925-13.847-8.854-20.771-4.307-6.926 4.547-8.854 13.847-4.307 20.771l11.147 16.98c3.809 5.804 7.853 11.172 12.044 16.133-12.909 9.881-28.572 18.449-47.508 24.751-7.863 2.607-12.123 11.096-9.516 18.959 2.088 6.297 7.945 10.282 14.235 10.282 4.694 0 36.477-10.325 64.32-32.694 29.296 24.279 58.89 32.694 64.221 32.694 6.473 0 12.445-4.223 14.377-10.744 2.352-7.942-2.18-16.289-10.123-18.641z"/><path d="m316.628 350.885c8.037 2.009 16.181-2.878 18.19-10.914l5.192-20.771h56.912l5.192 20.771c2.009 8.037 10.153 12.923 18.19 10.914s12.924-10.153 10.915-18.19l-28.238-112.957c-3.966-15.861-18.155-26.938-34.522-26.938-16.353 0-30.543 11.078-34.508 26.939l-28.237 112.956c-2.009 8.037 2.878 16.181 10.914 18.19zm46.429-123.87c.62-2.481 2.842-4.215 5.418-4.215 2.561 0 4.782 1.733 5.402 4.215l15.546 62.186h-41.912z"/></svg>